<svg width="164" height="49" viewBox="0 0 164 49" fill="none" xmlns="http://www.w3.org/2000/svg">
<path d="M0.92 12.4C0.92 10.544 1.88 8.992 3.8 7.744C5.752 6.496 8.728 5.872 12.728 5.872C17.656 5.872 20.12 8.048 20.12 12.4C20.12 13.776 19.576 15.088 18.488 16.336C17.912 16.976 16.616 17.776 14.6 18.736C13.48 19.248 12.04 19.696 10.28 20.08C8.552 20.464 7.672 20.656 7.64 20.656C6.68 20.656 6.2 20.176 6.2 19.216C6.2 18.512 6.68 18.048 7.64 17.824C8.6 17.568 9.272 17.392 9.656 17.296C10.072 17.2 10.76 17.024 11.72 16.768C12.68 16.48 13.4 16.208 13.88 15.952C14.36 15.696 14.904 15.392 15.512 15.04C16.664 14.368 17.24 13.424 17.24 12.208C17.24 10.96 16.936 10.08 16.328 9.568C15.752 9.024 14.584 8.752 12.824 8.752C11.064 8.752 9.56 8.88 8.312 9.136C7.064 9.392 6.136 9.712 5.528 10.096C4.376 10.864 3.8 11.648 3.8 12.448C3.8 14.56 4.232 17.696 5.096 21.856C5.992 26.016 6.632 28.784 7.016 30.16C7.432 31.504 7.64 32.304 7.64 32.56C7.64 33.52 7.16 34 6.2 34C5.752 34 5.432 33.888 5.24 33.664C5.048 33.44 4.728 32.496 4.28 30.832C3.832 29.168 3.16 26.256 2.264 22.096C1.368 17.904 0.92 14.672 0.92 12.4ZM27.8225 21.04C27.8225 20.624 27.9505 20.288 28.2065 20.032C28.4625 19.744 28.8145 19.6 29.2625 19.6C30.2225 19.6 30.7025 20.08 30.7025 21.04C30.7025 23.504 31.2785 25.808 32.4305 27.952C33.6145 30.064 34.9585 31.12 36.4625 31.12C37.1345 31.12 38.6065 27.312 40.8785 19.696C41.1665 18.736 41.7745 18.256 42.7025 18.256C43.1825 18.256 43.5345 18.352 43.7585 18.544C43.9825 18.736 44.1105 18.992 44.1425 19.312C44.2065 19.632 44.3025 20.24 44.4305 21.136C44.5585 22.032 44.7185 22.928 44.9105 23.824C45.0705 24.72 45.2785 25.68 45.5345 26.704C46.1105 29.008 46.7665 30.16 47.5025 30.16C48.1105 30.16 48.6545 30.08 49.1345 29.92C49.6145 29.76 49.9025 29.68 49.9985 29.68C50.9585 29.68 51.4385 30.16 51.4385 31.12C51.4385 31.824 51.0065 32.32 50.1425 32.608C49.2785 32.896 48.4785 33.04 47.7425 33.04C47.0065 33.04 46.3985 32.928 45.9185 32.704C45.4385 32.448 45.0385 32.144 44.7185 31.792C44.4625 31.472 44.1745 30.992 43.8545 30.352C43.5025 29.648 43.1665 28.832 42.8465 27.904C42.5585 26.976 42.3985 26.432 42.3665 26.272C42.3345 26.112 42.3025 25.952 42.2705 25.792C42.2705 25.6 42.2545 25.456 42.2225 25.36C42.1585 25.488 42.0945 25.68 42.0305 25.936L41.8385 26.512C41.7745 26.64 41.7105 26.784 41.6465 26.944C41.6145 27.072 41.4545 27.568 41.1665 28.432C40.8785 29.264 40.6225 29.936 40.3985 30.448C40.1745 30.896 39.8705 31.44 39.4865 32.08C38.7185 33.36 37.6625 34 36.3185 34C35.0065 34 33.6305 33.36 32.1905 32.08C30.7505 30.8 29.6305 29.088 28.8305 26.944C28.2225 27.936 27.4865 28.848 26.6225 29.68C25.1825 31.088 24.1265 31.92 23.4545 32.176C22.8145 32.432 22.3185 32.56 21.9665 32.56C21.0065 32.56 20.5265 32.08 20.5265 31.12C20.5265 30.512 21.0065 30.016 21.9665 29.632C22.9265 29.216 24.1425 28.192 25.6145 26.56C27.0865 24.928 27.8225 23.088 27.8225 21.04ZM56.6263 48.976C55.7623 48.976 55.2823 48.496 55.1863 47.536C55.0263 45.872 54.4183 42 53.3623 35.92C52.3383 29.872 51.8263 26.192 51.8263 24.88C51.8263 22.448 52.9623 20.48 55.2343 18.976C57.5063 17.472 60.0503 16.72 62.8663 16.72C64.9783 16.72 66.7063 17.328 68.0503 18.544C69.3943 19.76 70.0663 21.392 70.0663 23.44C70.0663 24.656 69.7143 25.776 69.0103 26.8C68.3383 27.824 67.5223 28.624 66.5623 29.2C64.5143 30.48 62.8023 31.12 61.4263 31.12C60.4663 31.12 59.9863 30.64 59.9863 29.68C59.9863 28.816 60.4663 28.352 61.4263 28.288C62.4183 28.192 63.6183 27.68 65.0263 26.752C66.4663 25.824 67.1863 24.736 67.1863 23.488C67.1863 22.208 66.8023 21.248 66.0343 20.608C65.2663 19.936 64.0503 19.6 62.3863 19.6C60.7543 19.6 59.0583 20.08 57.2983 21.04C55.5703 22 54.7063 23.216 54.7063 24.688C54.7063 26.16 55.3783 30.8 56.7223 38.608L57.2503 35.44C57.4103 34.48 57.8903 34 58.6903 34C59.6503 34 60.1303 34.48 60.1303 35.44C60.1303 35.6 60.1143 35.776 60.0823 35.968L58.2103 47.536C58.1783 47.824 58.0343 48.128 57.7783 48.448C57.5223 48.8 57.1383 48.976 56.6263 48.976ZM117.609 30.064C117.609 30.064 118.121 29.936 119.145 29.68C120.105 29.68 120.585 30.16 120.585 31.12C120.585 31.824 120.105 32.336 119.145 32.656C118.569 32.848 117.993 32.944 117.417 32.944C116.873 32.944 116.345 32.816 115.833 32.56C115.321 32.304 114.921 31.92 114.633 31.408C114.153 30.576 113.801 29.68 113.577 28.72L113.385 27.904C112.841 28.832 111.513 29.92 109.401 31.168C107.321 32.416 105.097 33.04 102.729 33.04C101.449 33.04 100.329 32.56 99.3688 31.6C98.4088 30.64 97.9288 29.52 97.9288 28.24C97.9288 25.136 99.2088 22.448 101.769 20.176C104.329 17.872 106.921 16.72 109.545 16.72C110.985 16.72 112.217 16.992 113.241 17.536C114.297 18.048 114.825 18.576 114.825 19.12C114.825 20.08 114.345 20.56 113.385 20.56C113.193 20.56 112.729 20.4 111.993 20.08C111.257 19.76 110.441 19.6 109.545 19.6C107.817 19.6 105.929 20.448 103.881 22.144C101.833 23.808 100.809 25.84 100.809 28.24C100.809 28.72 101.001 29.168 101.385 29.584C101.801 29.968 102.249 30.16 102.729 30.16C104.617 30.16 106.377 29.664 108.009 28.672C109.641 27.648 110.681 26.816 111.129 26.176C111.577 25.504 111.945 24.896 112.233 24.352C112.521 23.808 112.729 23.456 112.857 23.296C113.017 23.104 113.337 23.008 113.817 23.008C114.297 23.008 114.665 23.184 114.921 23.536C115.177 23.888 115.417 24.448 115.641 25.216C115.865 25.952 116.089 26.784 116.313 27.712C116.537 28.64 116.729 29.264 116.889 29.584C117.081 29.904 117.321 30.064 117.609 30.064ZM78.7288 16.72C78.7288 12.72 79.6568 9.312 81.5128 6.496C83.4008 3.648 86.0888 2.224 89.5768 2.224C91.9768 2.224 94.0408 3.296 95.7688 5.44C97.5288 7.552 98.4088 9.712 98.4088 11.92C98.4088 15.824 94.3448 18.688 86.2168 20.512C85.7368 20.608 85.4808 20.656 85.4488 20.656C84.4888 20.656 84.0088 20.176 84.0088 19.216C84.0088 18.512 84.4888 18.032 85.4488 17.776C92.1688 16.208 95.5288 14.256 95.5288 11.92C95.5288 10.448 94.9368 8.944 93.7528 7.408C92.5688 5.872 91.1128 5.104 89.3848 5.104C87.6888 5.104 86.2168 5.68 84.9688 6.832C82.7288 8.944 81.6088 12.24 81.6088 16.72C81.6088 19.216 81.7848 22 82.1368 25.072C82.4888 28.112 82.9048 30.336 83.3848 31.744C83.4808 32.032 83.5288 32.304 83.5288 32.56C83.5288 33.52 83.0488 34 82.0888 34C81.5768 34 81.1928 33.776 80.9368 33.328C80.2968 32.016 79.7688 29.632 79.3528 26.176C78.9368 22.72 78.7288 19.568 78.7288 16.72ZM129.415 17.056C130.247 17.152 131.191 17.2 132.247 17.2C133.335 17.2 134.455 16.96 135.607 16.48C136.791 15.968 137.687 15.376 138.295 14.704C138.903 14 139.399 13.184 139.783 12.256C140.359 10.848 140.647 9.504 140.647 8.224C140.647 6.912 140.439 5.856 140.023 5.056C139.639 4.256 139.047 3.856 138.247 3.856C136.775 3.856 135.143 5.12 133.351 7.648C131.559 10.176 130.247 13.312 129.415 17.056ZM124.807 16.24L126.583 16.624C127.543 12.272 129.127 8.576 131.335 5.536C133.543 2.496 135.847 0.975999 138.247 0.975999C139.879 0.975999 141.159 1.648 142.087 2.992C143.047 4.336 143.527 5.808 143.527 7.408C143.527 9.008 143.303 10.496 142.855 11.872C142.407 13.216 141.719 14.528 140.791 15.808C139.895 17.056 138.647 18.08 137.047 18.88C135.447 19.68 133.623 20.08 131.575 20.08C131.063 20.08 130.167 20.016 128.887 19.888C128.727 21.328 128.647 22.672 128.647 23.92C128.647 26.224 129.223 28 130.375 29.248C131.559 30.496 132.935 31.12 134.503 31.12C136.071 31.12 137.447 30.832 138.631 30.256C139.815 29.68 140.823 28.976 141.655 28.144C142.487 27.28 143.383 26.352 144.343 25.36C145.335 24.368 146.295 23.456 147.223 22.624C148.151 21.76 149.287 21.04 150.631 20.464C152.007 19.888 153.479 19.6 155.047 19.6C157.255 19.6 159.159 20.416 160.759 22.048C162.391 23.648 163.207 25.44 163.207 27.424C163.207 29.376 162.599 30.96 161.383 32.176C160.167 33.392 158.775 34 157.207 34C155.639 34 154.247 33.6 153.031 32.8C151.815 32 151.207 31.28 151.207 30.64C151.207 29.68 151.687 29.2 152.647 29.2C152.903 29.2 153.431 29.52 154.231 30.16C155.063 30.8 155.959 31.12 156.919 31.12C157.879 31.12 158.679 30.8 159.319 30.16C159.991 29.488 160.327 28.688 160.327 27.76C160.327 26.32 159.799 25.088 158.743 24.064C157.719 23.008 156.519 22.48 155.143 22.48C153.767 22.48 152.487 22.768 151.303 23.344C150.119 23.92 149.111 24.64 148.279 25.504C147.447 26.336 146.535 27.248 145.543 28.24C144.583 29.232 143.639 30.16 142.711 31.024C141.783 31.856 140.631 32.56 139.255 33.136C137.911 33.712 136.455 34 134.887 34C132.263 34 130.087 33.088 128.359 31.264C126.631 29.408 125.767 26.96 125.767 23.92C125.767 22.384 125.863 20.88 126.055 19.408L124.807 19.12C123.847 18.864 123.367 18.384 123.367 17.68C123.367 16.72 123.847 16.24 124.807 16.24Z" fill="#403E3E"/>
<path d="M0.92 12.4C0.92 10.544 1.88 8.992 3.8 7.744C5.752 6.496 8.728 5.872 12.728 5.872C17.656 5.872 20.12 8.048 20.12 12.4C20.12 13.776 19.576 15.088 18.488 16.336C17.912 16.976 16.616 17.776 14.6 18.736C13.48 19.248 12.04 19.696 10.28 20.08C8.552 20.464 7.672 20.656 7.64 20.656C6.68 20.656 6.2 20.176 6.2 19.216C6.2 18.512 6.68 18.048 7.64 17.824C8.6 17.568 9.272 17.392 9.656 17.296C10.072 17.2 10.76 17.024 11.72 16.768C12.68 16.48 13.4 16.208 13.88 15.952C14.36 15.696 14.904 15.392 15.512 15.04C16.664 14.368 17.24 13.424 17.24 12.208C17.24 10.96 16.936 10.08 16.328 9.568C15.752 9.024 14.584 8.752 12.824 8.752C11.064 8.752 9.56 8.88 8.312 9.136C7.064 9.392 6.136 9.712 5.528 10.096C4.376 10.864 3.8 11.648 3.8 12.448C3.8 14.56 4.232 17.696 5.096 21.856C5.992 26.016 6.632 28.784 7.016 30.16C7.432 31.504 7.64 32.304 7.64 32.56C7.64 33.52 7.16 34 6.2 34C5.752 34 5.432 33.888 5.24 33.664C5.048 33.44 4.728 32.496 4.28 30.832C3.832 29.168 3.16 26.256 2.264 22.096C1.368 17.904 0.92 14.672 0.92 12.4ZM27.8225 21.04C27.8225 20.624 27.9505 20.288 28.2065 20.032C28.4625 19.744 28.8145 19.6 29.2625 19.6C30.2225 19.6 30.7025 20.08 30.7025 21.04C30.7025 23.504 31.2785 25.808 32.4305 27.952C33.6145 30.064 34.9585 31.12 36.4625 31.12C37.1345 31.12 38.6065 27.312 40.8785 19.696C41.1665 18.736 41.7745 18.256 42.7025 18.256C43.1825 18.256 43.5345 18.352 43.7585 18.544C43.9825 18.736 44.1105 18.992 44.1425 19.312C44.2065 19.632 44.3025 20.24 44.4305 21.136C44.5585 22.032 44.7185 22.928 44.9105 23.824C45.0705 24.72 45.2785 25.68 45.5345 26.704C46.1105 29.008 46.7665 30.16 47.5025 30.16C48.1105 30.16 48.6545 30.08 49.1345 29.92C49.6145 29.76 49.9025 29.68 49.9985 29.68C50.9585 29.68 51.4385 30.16 51.4385 31.12C51.4385 31.824 51.0065 32.32 50.1425 32.608C49.2785 32.896 48.4785 33.04 47.7425 33.04C47.0065 33.04 46.3985 32.928 45.9185 32.704C45.4385 32.448 45.0385 32.144 44.7185 31.792C44.4625 31.472 44.1745 30.992 43.8545 30.352C43.5025 29.648 43.1665 28.832 42.8465 27.904C42.5585 26.976 42.3985 26.432 42.3665 26.272C42.3345 26.112 42.3025 25.952 42.2705 25.792C42.2705 25.6 42.2545 25.456 42.2225 25.36C42.1585 25.488 42.0945 25.68 42.0305 25.936L41.8385 26.512C41.7745 26.64 41.7105 26.784 41.6465 26.944C41.6145 27.072 41.4545 27.568 41.1665 28.432C40.8785 29.264 40.6225 29.936 40.3985 30.448C40.1745 30.896 39.8705 31.44 39.4865 32.08C38.7185 33.36 37.6625 34 36.3185 34C35.0065 34 33.6305 33.36 32.1905 32.08C30.7505 30.8 29.6305 29.088 28.8305 26.944C28.2225 27.936 27.4865 28.848 26.6225 29.68C25.1825 31.088 24.1265 31.92 23.4545 32.176C22.8145 32.432 22.3185 32.56 21.9665 32.56C21.0065 32.56 20.5265 32.08 20.5265 31.12C20.5265 30.512 21.0065 30.016 21.9665 29.632C22.9265 29.216 24.1425 28.192 25.6145 26.56C27.0865 24.928 27.8225 23.088 27.8225 21.04ZM56.6263 48.976C55.7623 48.976 55.2823 48.496 55.1863 47.536C55.0263 45.872 54.4183 42 53.3623 35.92C52.3383 29.872 51.8263 26.192 51.8263 24.88C51.8263 22.448 52.9623 20.48 55.2343 18.976C57.5063 17.472 60.0503 16.72 62.8663 16.72C64.9783 16.72 66.7063 17.328 68.0503 18.544C69.3943 19.76 70.0663 21.392 70.0663 23.44C70.0663 24.656 69.7143 25.776 69.0103 26.8C68.3383 27.824 67.5223 28.624 66.5623 29.2C64.5143 30.48 62.8023 31.12 61.4263 31.12C60.4663 31.12 59.9863 30.64 59.9863 29.68C59.9863 28.816 60.4663 28.352 61.4263 28.288C62.4183 28.192 63.6183 27.68 65.0263 26.752C66.4663 25.824 67.1863 24.736 67.1863 23.488C67.1863 22.208 66.8023 21.248 66.0343 20.608C65.2663 19.936 64.0503 19.6 62.3863 19.6C60.7543 19.6 59.0583 20.08 57.2983 21.04C55.5703 22 54.7063 23.216 54.7063 24.688C54.7063 26.16 55.3783 30.8 56.7223 38.608L57.2503 35.44C57.4103 34.48 57.8903 34 58.6903 34C59.6503 34 60.1303 34.48 60.1303 35.44C60.1303 35.6 60.1143 35.776 60.0823 35.968L58.2103 47.536C58.1783 47.824 58.0343 48.128 57.7783 48.448C57.5223 48.8 57.1383 48.976 56.6263 48.976ZM117.609 30.064C117.609 30.064 118.121 29.936 119.145 29.68C120.105 29.68 120.585 30.16 120.585 31.12C120.585 31.824 120.105 32.336 119.145 32.656C118.569 32.848 117.993 32.944 117.417 32.944C116.873 32.944 116.345 32.816 115.833 32.56C115.321 32.304 114.921 31.92 114.633 31.408C114.153 30.576 113.801 29.68 113.577 28.72L113.385 27.904C112.841 28.832 111.513 29.92 109.401 31.168C107.321 32.416 105.097 33.04 102.729 33.04C101.449 33.04 100.329 32.56 99.3688 31.6C98.4088 30.64 97.9288 29.52 97.9288 28.24C97.9288 25.136 99.2088 22.448 101.769 20.176C104.329 17.872 106.921 16.72 109.545 16.72C110.985 16.72 112.217 16.992 113.241 17.536C114.297 18.048 114.825 18.576 114.825 19.12C114.825 20.08 114.345 20.56 113.385 20.56C113.193 20.56 112.729 20.4 111.993 20.08C111.257 19.76 110.441 19.6 109.545 19.6C107.817 19.6 105.929 20.448 103.881 22.144C101.833 23.808 100.809 25.84 100.809 28.24C100.809 28.72 101.001 29.168 101.385 29.584C101.801 29.968 102.249 30.16 102.729 30.16C104.617 30.16 106.377 29.664 108.009 28.672C109.641 27.648 110.681 26.816 111.129 26.176C111.577 25.504 111.945 24.896 112.233 24.352C112.521 23.808 112.729 23.456 112.857 23.296C113.017 23.104 113.337 23.008 113.817 23.008C114.297 23.008 114.665 23.184 114.921 23.536C115.177 23.888 115.417 24.448 115.641 25.216C115.865 25.952 116.089 26.784 116.313 27.712C116.537 28.64 116.729 29.264 116.889 29.584C117.081 29.904 117.321 30.064 117.609 30.064ZM78.7288 16.72C78.7288 12.72 79.6568 9.312 81.5128 6.496C83.4008 3.648 86.0888 2.224 89.5768 2.224C91.9768 2.224 94.0408 3.296 95.7688 5.44C97.5288 7.552 98.4088 9.712 98.4088 11.92C98.4088 15.824 94.3448 18.688 86.2168 20.512C85.7368 20.608 85.4808 20.656 85.4488 20.656C84.4888 20.656 84.0088 20.176 84.0088 19.216C84.0088 18.512 84.4888 18.032 85.4488 17.776C92.1688 16.208 95.5288 14.256 95.5288 11.92C95.5288 10.448 94.9368 8.944 93.7528 7.408C92.5688 5.872 91.1128 5.104 89.3848 5.104C87.6888 5.104 86.2168 5.68 84.9688 6.832C82.7288 8.944 81.6088 12.24 81.6088 16.72C81.6088 19.216 81.7848 22 82.1368 25.072C82.4888 28.112 82.9048 30.336 83.3848 31.744C83.4808 32.032 83.5288 32.304 83.5288 32.56C83.5288 33.52 83.0488 34 82.0888 34C81.5768 34 81.1928 33.776 80.9368 33.328C80.2968 32.016 79.7688 29.632 79.3528 26.176C78.9368 22.72 78.7288 19.568 78.7288 16.72ZM129.415 17.056C130.247 17.152 131.191 17.2 132.247 17.2C133.335 17.2 134.455 16.96 135.607 16.48C136.791 15.968 137.687 15.376 138.295 14.704C138.903 14 139.399 13.184 139.783 12.256C140.359 10.848 140.647 9.504 140.647 8.224C140.647 6.912 140.439 5.856 140.023 5.056C139.639 4.256 139.047 3.856 138.247 3.856C136.775 3.856 135.143 5.12 133.351 7.648C131.559 10.176 130.247 13.312 129.415 17.056ZM124.807 16.24L126.583 16.624C127.543 12.272 129.127 8.576 131.335 5.536C133.543 2.496 135.847 0.975999 138.247 0.975999C139.879 0.975999 141.159 1.648 142.087 2.992C143.047 4.336 143.527 5.808 143.527 7.408C143.527 9.008 143.303 10.496 142.855 11.872C142.407 13.216 141.719 14.528 140.791 15.808C139.895 17.056 138.647 18.08 137.047 18.88C135.447 19.68 133.623 20.08 131.575 20.08C131.063 20.08 130.167 20.016 128.887 19.888C128.727 21.328 128.647 22.672 128.647 23.92C128.647 26.224 129.223 28 130.375 29.248C131.559 30.496 132.935 31.12 134.503 31.12C136.071 31.12 137.447 30.832 138.631 30.256C139.815 29.68 140.823 28.976 141.655 28.144C142.487 27.28 143.383 26.352 144.343 25.36C145.335 24.368 146.295 23.456 147.223 22.624C148.151 21.76 149.287 21.04 150.631 20.464C152.007 19.888 153.479 19.6 155.047 19.6C157.255 19.6 159.159 20.416 160.759 22.048C162.391 23.648 163.207 25.44 163.207 27.424C163.207 29.376 162.599 30.96 161.383 32.176C160.167 33.392 158.775 34 157.207 34C155.639 34 154.247 33.6 153.031 32.8C151.815 32 151.207 31.28 151.207 30.64C151.207 29.68 151.687 29.2 152.647 29.2C152.903 29.2 153.431 29.52 154.231 30.16C155.063 30.8 155.959 31.12 156.919 31.12C157.879 31.12 158.679 30.8 159.319 30.16C159.991 29.488 160.327 28.688 160.327 27.76C160.327 26.32 159.799 25.088 158.743 24.064C157.719 23.008 156.519 22.48 155.143 22.48C153.767 22.48 152.487 22.768 151.303 23.344C150.119 23.92 149.111 24.64 148.279 25.504C147.447 26.336 146.535 27.248 145.543 28.24C144.583 29.232 143.639 30.16 142.711 31.024C141.783 31.856 140.631 32.56 139.255 33.136C137.911 33.712 136.455 34 134.887 34C132.263 34 130.087 33.088 128.359 31.264C126.631 29.408 125.767 26.96 125.767 23.92C125.767 22.384 125.863 20.88 126.055 19.408L124.807 19.12C123.847 18.864 123.367 18.384 123.367 17.68C123.367 16.72 123.847 16.24 124.807 16.24Z" fill="black" fill-opacity="0.2"/>
</svg>
